<mxfile host="app.diagrams.net" modified="2023-06-05T14:39:20.434Z" agent="Mozilla/5.0 (Windows NT 10.0; Win64; x64) AppleWebKit/537.36 (KHTML, like Gecko) Chrome/114.0.0.0 Safari/537.36" etag="1mTporL0ZhNGEnucMlEF" version="21.3.7" type="github">
  <diagram name="Page-1" id="2YBvvXClWsGukQMizWep">
    <mxGraphModel dx="2736" dy="790" grid="1" gridSize="10" guides="1" tooltips="1" connect="1" arrows="1" fold="1" page="1" pageScale="1" pageWidth="850" pageHeight="1100" math="0" shadow="0">
      <root>
        <mxCell id="0" />
        <mxCell id="1" parent="0" />
        <mxCell id="62yjUidjnjnx16H1xpd4-19" style="edgeStyle=orthogonalEdgeStyle;rounded=0;orthogonalLoop=1;jettySize=auto;html=1;exitX=0.5;exitY=0.5;exitDx=0;exitDy=0;exitPerimeter=0;dashed=1;" parent="1" source="62yjUidjnjnx16H1xpd4-1" edge="1">
          <mxGeometry relative="1" as="geometry">
            <mxPoint x="-635" y="370" as="targetPoint" />
          </mxGeometry>
        </mxCell>
        <mxCell id="62yjUidjnjnx16H1xpd4-1" value="Jogador" style="shape=umlActor;verticalLabelPosition=bottom;verticalAlign=top;html=1;" parent="1" vertex="1">
          <mxGeometry x="-650" y="60" width="30" height="60" as="geometry" />
        </mxCell>
        <mxCell id="62yjUidjnjnx16H1xpd4-23" style="edgeStyle=orthogonalEdgeStyle;rounded=0;orthogonalLoop=1;jettySize=auto;html=1;exitX=0.5;exitY=1;exitDx=0;exitDy=0;dashed=1;" parent="1" source="62yjUidjnjnx16H1xpd4-20" edge="1">
          <mxGeometry relative="1" as="geometry">
            <mxPoint x="-465" y="435" as="targetPoint" />
          </mxGeometry>
        </mxCell>
        <mxCell id="62yjUidjnjnx16H1xpd4-20" value="Aplicativo" style="html=1;whiteSpace=wrap;" parent="1" vertex="1">
          <mxGeometry x="-520" y="70" width="110" height="50" as="geometry" />
        </mxCell>
        <mxCell id="62yjUidjnjnx16H1xpd4-40" style="edgeStyle=orthogonalEdgeStyle;rounded=0;orthogonalLoop=1;jettySize=auto;html=1;exitX=0.5;exitY=1;exitDx=0;exitDy=0;dashed=1;" parent="1" source="62yjUidjnjnx16H1xpd4-25" edge="1">
          <mxGeometry relative="1" as="geometry">
            <mxPoint x="-295" y="455" as="targetPoint" />
          </mxGeometry>
        </mxCell>
        <mxCell id="62yjUidjnjnx16H1xpd4-25" value="Banco de dados" style="html=1;whiteSpace=wrap;" parent="1" vertex="1">
          <mxGeometry x="-350" y="70" width="110" height="50" as="geometry" />
        </mxCell>
        <mxCell id="62yjUidjnjnx16H1xpd4-29" value="&lt;font style=&quot;font-size: 7px;&quot;&gt;1: iniciarJogo()&lt;br&gt;{Iniciar um novo jogo}&lt;/font&gt;" style="html=1;verticalAlign=bottom;endArrow=block;edgeStyle=elbowEdgeStyle;elbow=vertical;curved=0;rounded=0;" parent="1" edge="1">
          <mxGeometry width="80" relative="1" as="geometry">
            <mxPoint x="-630" y="210" as="sourcePoint" />
            <mxPoint x="-470" y="210" as="targetPoint" />
          </mxGeometry>
        </mxCell>
        <mxCell id="62yjUidjnjnx16H1xpd4-31" value="&lt;font style=&quot;font-size: 7px;&quot;&gt;3: pergunta&lt;/font&gt;" style="html=1;verticalAlign=bottom;endArrow=open;dashed=1;endSize=8;edgeStyle=elbowEdgeStyle;elbow=vertical;curved=0;rounded=0;" parent="1" edge="1">
          <mxGeometry relative="1" as="geometry">
            <mxPoint x="-300" y="289.2962962962962" as="sourcePoint" />
            <mxPoint x="-460" y="289.24242424242425" as="targetPoint" />
          </mxGeometry>
        </mxCell>
        <mxCell id="62yjUidjnjnx16H1xpd4-43" value="" style="html=1;points=[];perimeter=orthogonalPerimeter;outlineConnect=0;targetShapes=umlLifeline;portConstraint=eastwest;newEdgeStyle={&quot;edgeStyle&quot;:&quot;elbowEdgeStyle&quot;,&quot;elbow&quot;:&quot;vertical&quot;,&quot;curved&quot;:0,&quot;rounded&quot;:0};" parent="1" vertex="1">
          <mxGeometry x="-470" y="210" width="10" height="500" as="geometry" />
        </mxCell>
        <mxCell id="62yjUidjnjnx16H1xpd4-57" value="" style="html=1;points=[];perimeter=orthogonalPerimeter;outlineConnect=0;targetShapes=umlLifeline;portConstraint=eastwest;newEdgeStyle={&quot;edgeStyle&quot;:&quot;elbowEdgeStyle&quot;,&quot;elbow&quot;:&quot;vertical&quot;,&quot;curved&quot;:0,&quot;rounded&quot;:0};" parent="1" vertex="1">
          <mxGeometry x="-300" y="220" width="10" height="480" as="geometry" />
        </mxCell>
        <mxCell id="62yjUidjnjnx16H1xpd4-63" value="Loop" style="shape=umlFrame;whiteSpace=wrap;html=1;pointerEvents=0;recursiveResize=0;container=1;collapsible=0;width=80;" parent="1" vertex="1">
          <mxGeometry x="-770" y="237.5" width="640" height="442.5" as="geometry" />
        </mxCell>
        <mxCell id="62yjUidjnjnx16H1xpd4-64" value="&lt;font style=&quot;font-size: 10px;&quot;&gt;i &amp;lt; quantidadePerguntas&lt;/font&gt;" style="text;align=left;html=1;" parent="62yjUidjnjnx16H1xpd4-63" vertex="1">
          <mxGeometry width="100" height="20" relative="1" as="geometry">
            <mxPoint x="90" y="5" as="offset" />
          </mxGeometry>
        </mxCell>
        <mxCell id="62yjUidjnjnx16H1xpd4-69" value="Alt" style="shape=umlFrame;whiteSpace=wrap;html=1;pointerEvents=0;recursiveResize=0;container=1;collapsible=0;width=60;height=30;" parent="62yjUidjnjnx16H1xpd4-63" vertex="1">
          <mxGeometry x="40" y="262.5" width="510" height="160" as="geometry" />
        </mxCell>
        <mxCell id="62yjUidjnjnx16H1xpd4-70" value="&lt;font style=&quot;font-size: 10px;&quot;&gt;[if correct]&lt;/font&gt;" style="text;html=1;" parent="62yjUidjnjnx16H1xpd4-69" vertex="1">
          <mxGeometry width="100" height="20" relative="1" as="geometry">
            <mxPoint x="20" y="40" as="offset" />
          </mxGeometry>
        </mxCell>
        <mxCell id="62yjUidjnjnx16H1xpd4-71" value="&lt;font style=&quot;font-size: 10px;&quot;&gt;[else]&lt;/font&gt;" style="line;strokeWidth=1;dashed=1;labelPosition=center;verticalLabelPosition=bottom;align=left;verticalAlign=top;spacingLeft=20;spacingTop=15;html=1;whiteSpace=wrap;" parent="62yjUidjnjnx16H1xpd4-69" vertex="1">
          <mxGeometry y="80" width="510" height="10" as="geometry" />
        </mxCell>
        <mxCell id="62yjUidjnjnx16H1xpd4-68" value="&lt;span style=&quot;font-size: 7px;&quot;&gt;2: solicitarPergunta()&lt;/span&gt;" style="html=1;verticalAlign=bottom;endArrow=block;edgeStyle=elbowEdgeStyle;elbow=vertical;curved=0;rounded=0;" parent="1" target="62yjUidjnjnx16H1xpd4-57" edge="1">
          <mxGeometry x="-0.0012" width="80" relative="1" as="geometry">
            <mxPoint x="-460" y="263" as="sourcePoint" />
            <mxPoint x="-310" y="262.5" as="targetPoint" />
            <mxPoint as="offset" />
          </mxGeometry>
        </mxCell>
        <mxCell id="62yjUidjnjnx16H1xpd4-73" value="&lt;font style=&quot;font-size: 7px;&quot;&gt;4: pergunta&lt;/font&gt;" style="html=1;verticalAlign=bottom;endArrow=open;dashed=1;endSize=8;edgeStyle=elbowEdgeStyle;elbow=vertical;curved=0;rounded=0;" parent="1" edge="1">
          <mxGeometry relative="1" as="geometry">
            <mxPoint x="-470" y="332.5" as="sourcePoint" />
            <mxPoint x="-630" y="332.44242424242424" as="targetPoint" />
          </mxGeometry>
        </mxCell>
        <mxCell id="62yjUidjnjnx16H1xpd4-74" value="&lt;span style=&quot;font-size: 7px;&quot;&gt;5: responderPergunta(alternativa)&lt;/span&gt;" style="html=1;verticalAlign=bottom;endArrow=block;edgeStyle=elbowEdgeStyle;elbow=vertical;curved=0;rounded=0;" parent="1" edge="1">
          <mxGeometry width="80" relative="1" as="geometry">
            <mxPoint x="-630" y="380" as="sourcePoint" />
            <mxPoint x="-470" y="380" as="targetPoint" />
          </mxGeometry>
        </mxCell>
        <mxCell id="62yjUidjnjnx16H1xpd4-75" value="&lt;span style=&quot;font-size: 7px;&quot;&gt;6: verificarResposta(pergunta, alternativa)&lt;/span&gt;" style="html=1;verticalAlign=bottom;endArrow=block;edgeStyle=elbowEdgeStyle;elbow=vertical;curved=0;rounded=0;" parent="1" edge="1">
          <mxGeometry width="80" relative="1" as="geometry">
            <mxPoint x="-460" y="410.21000000000004" as="sourcePoint" />
            <mxPoint x="-300" y="410.21000000000004" as="targetPoint" />
          </mxGeometry>
        </mxCell>
        <mxCell id="62yjUidjnjnx16H1xpd4-77" value="&lt;font style=&quot;font-size: 7px;&quot;&gt;7: correct&lt;/font&gt;" style="html=1;verticalAlign=bottom;endArrow=open;dashed=1;endSize=8;edgeStyle=elbowEdgeStyle;elbow=vertical;curved=0;rounded=0;" parent="1" edge="1">
          <mxGeometry relative="1" as="geometry">
            <mxPoint x="-300" y="458.6762962962962" as="sourcePoint" />
            <mxPoint x="-460" y="458.62242424242424" as="targetPoint" />
          </mxGeometry>
        </mxCell>
        <mxCell id="62yjUidjnjnx16H1xpd4-79" value="&lt;font style=&quot;font-size: 7px;&quot;&gt;8: Você acertou a resposta!&lt;/font&gt;" style="html=1;verticalAlign=bottom;endArrow=open;dashed=1;endSize=8;edgeStyle=elbowEdgeStyle;elbow=vertical;curved=0;rounded=0;" parent="1" edge="1">
          <mxGeometry relative="1" as="geometry">
            <mxPoint x="-470" y="550.0962962962961" as="sourcePoint" />
            <mxPoint x="-630" y="550.0424242424242" as="targetPoint" />
          </mxGeometry>
        </mxCell>
        <mxCell id="62yjUidjnjnx16H1xpd4-81" value="&lt;font style=&quot;font-size: 7px;&quot;&gt;8: Infelizmente você errou a resposta!&lt;/font&gt;" style="html=1;verticalAlign=bottom;endArrow=open;dashed=1;endSize=8;edgeStyle=elbowEdgeStyle;elbow=vertical;curved=0;rounded=0;" parent="1" edge="1">
          <mxGeometry relative="1" as="geometry">
            <mxPoint x="-470" y="620.0562962962962" as="sourcePoint" />
            <mxPoint x="-630" y="620.0024242424242" as="targetPoint" />
          </mxGeometry>
        </mxCell>
        <mxCell id="95ebwujwE4yP5C2ZVktL-1" style="edgeStyle=orthogonalEdgeStyle;rounded=0;orthogonalLoop=1;jettySize=auto;html=1;exitX=0.5;exitY=0.5;exitDx=0;exitDy=0;exitPerimeter=0;dashed=1;" edge="1" parent="1" source="95ebwujwE4yP5C2ZVktL-2">
          <mxGeometry relative="1" as="geometry">
            <mxPoint x="-625" y="1110" as="targetPoint" />
          </mxGeometry>
        </mxCell>
        <mxCell id="95ebwujwE4yP5C2ZVktL-2" value="Jogador" style="shape=umlActor;verticalLabelPosition=bottom;verticalAlign=top;html=1;" vertex="1" parent="1">
          <mxGeometry x="-640" y="800" width="30" height="60" as="geometry" />
        </mxCell>
        <mxCell id="95ebwujwE4yP5C2ZVktL-3" style="edgeStyle=orthogonalEdgeStyle;rounded=0;orthogonalLoop=1;jettySize=auto;html=1;exitX=0.5;exitY=1;exitDx=0;exitDy=0;dashed=1;" edge="1" parent="1" source="95ebwujwE4yP5C2ZVktL-4">
          <mxGeometry relative="1" as="geometry">
            <mxPoint x="-455" y="1175" as="targetPoint" />
          </mxGeometry>
        </mxCell>
        <mxCell id="95ebwujwE4yP5C2ZVktL-4" value="Aplicativo" style="html=1;whiteSpace=wrap;" vertex="1" parent="1">
          <mxGeometry x="-510" y="810" width="110" height="50" as="geometry" />
        </mxCell>
        <mxCell id="95ebwujwE4yP5C2ZVktL-5" style="edgeStyle=orthogonalEdgeStyle;rounded=0;orthogonalLoop=1;jettySize=auto;html=1;exitX=0.5;exitY=1;exitDx=0;exitDy=0;dashed=1;" edge="1" parent="1" source="95ebwujwE4yP5C2ZVktL-6">
          <mxGeometry relative="1" as="geometry">
            <mxPoint x="-285" y="1195" as="targetPoint" />
          </mxGeometry>
        </mxCell>
        <mxCell id="95ebwujwE4yP5C2ZVktL-6" value="Banco de dados" style="html=1;whiteSpace=wrap;" vertex="1" parent="1">
          <mxGeometry x="-340" y="810" width="110" height="50" as="geometry" />
        </mxCell>
        <mxCell id="95ebwujwE4yP5C2ZVktL-7" value="&lt;font style=&quot;font-size: 7px;&quot;&gt;1: iniciarJogo()&lt;br&gt;{Iniciar um novo jogo}&lt;/font&gt;" style="html=1;verticalAlign=bottom;endArrow=block;edgeStyle=elbowEdgeStyle;elbow=vertical;curved=0;rounded=0;" edge="1" parent="1">
          <mxGeometry width="80" relative="1" as="geometry">
            <mxPoint x="-620" y="950" as="sourcePoint" />
            <mxPoint x="-460" y="950" as="targetPoint" />
          </mxGeometry>
        </mxCell>
        <mxCell id="95ebwujwE4yP5C2ZVktL-8" value="&lt;font style=&quot;font-size: 7px;&quot;&gt;3: pergunta&lt;/font&gt;" style="html=1;verticalAlign=bottom;endArrow=open;dashed=1;endSize=8;edgeStyle=elbowEdgeStyle;elbow=vertical;curved=0;rounded=0;" edge="1" parent="1">
          <mxGeometry relative="1" as="geometry">
            <mxPoint x="-290" y="1029.296296296296" as="sourcePoint" />
            <mxPoint x="-450" y="1029.2424242424242" as="targetPoint" />
          </mxGeometry>
        </mxCell>
        <mxCell id="95ebwujwE4yP5C2ZVktL-9" value="" style="html=1;points=[];perimeter=orthogonalPerimeter;outlineConnect=0;targetShapes=umlLifeline;portConstraint=eastwest;newEdgeStyle={&quot;edgeStyle&quot;:&quot;elbowEdgeStyle&quot;,&quot;elbow&quot;:&quot;vertical&quot;,&quot;curved&quot;:0,&quot;rounded&quot;:0};" vertex="1" parent="1">
          <mxGeometry x="-460" y="950" width="10" height="500" as="geometry" />
        </mxCell>
        <mxCell id="95ebwujwE4yP5C2ZVktL-10" value="" style="html=1;points=[];perimeter=orthogonalPerimeter;outlineConnect=0;targetShapes=umlLifeline;portConstraint=eastwest;newEdgeStyle={&quot;edgeStyle&quot;:&quot;elbowEdgeStyle&quot;,&quot;elbow&quot;:&quot;vertical&quot;,&quot;curved&quot;:0,&quot;rounded&quot;:0};" vertex="1" parent="1">
          <mxGeometry x="-290" y="960" width="10" height="480" as="geometry" />
        </mxCell>
        <mxCell id="95ebwujwE4yP5C2ZVktL-11" value="Loop" style="shape=umlFrame;whiteSpace=wrap;html=1;pointerEvents=0;recursiveResize=0;container=1;collapsible=0;width=80;" vertex="1" parent="1">
          <mxGeometry x="-760" y="977.5" width="640" height="442.5" as="geometry" />
        </mxCell>
        <mxCell id="95ebwujwE4yP5C2ZVktL-12" value="&lt;font style=&quot;font-size: 10px;&quot;&gt;i &amp;lt; quantidadePerguntas&lt;/font&gt;" style="text;align=left;html=1;" vertex="1" parent="95ebwujwE4yP5C2ZVktL-11">
          <mxGeometry width="100" height="20" relative="1" as="geometry">
            <mxPoint x="90" y="5" as="offset" />
          </mxGeometry>
        </mxCell>
        <mxCell id="95ebwujwE4yP5C2ZVktL-13" value="Alt" style="shape=umlFrame;whiteSpace=wrap;html=1;pointerEvents=0;recursiveResize=0;container=1;collapsible=0;width=60;height=30;" vertex="1" parent="95ebwujwE4yP5C2ZVktL-11">
          <mxGeometry x="40" y="262.5" width="510" height="160" as="geometry" />
        </mxCell>
        <mxCell id="95ebwujwE4yP5C2ZVktL-14" value="&lt;font style=&quot;font-size: 10px;&quot;&gt;[if correct]&lt;/font&gt;" style="text;html=1;" vertex="1" parent="95ebwujwE4yP5C2ZVktL-13">
          <mxGeometry width="100" height="20" relative="1" as="geometry">
            <mxPoint x="20" y="40" as="offset" />
          </mxGeometry>
        </mxCell>
        <mxCell id="95ebwujwE4yP5C2ZVktL-15" value="&lt;font style=&quot;font-size: 10px;&quot;&gt;[else]&lt;/font&gt;" style="line;strokeWidth=1;dashed=1;labelPosition=center;verticalLabelPosition=bottom;align=left;verticalAlign=top;spacingLeft=20;spacingTop=15;html=1;whiteSpace=wrap;" vertex="1" parent="95ebwujwE4yP5C2ZVktL-13">
          <mxGeometry y="80" width="510" height="10" as="geometry" />
        </mxCell>
        <mxCell id="95ebwujwE4yP5C2ZVktL-16" value="&lt;span style=&quot;font-size: 7px;&quot;&gt;2: solicitarPergunta()&lt;/span&gt;" style="html=1;verticalAlign=bottom;endArrow=block;edgeStyle=elbowEdgeStyle;elbow=vertical;curved=0;rounded=0;" edge="1" parent="1" target="95ebwujwE4yP5C2ZVktL-10">
          <mxGeometry x="-0.0012" width="80" relative="1" as="geometry">
            <mxPoint x="-450" y="1003" as="sourcePoint" />
            <mxPoint x="-300" y="1002.5" as="targetPoint" />
            <mxPoint as="offset" />
          </mxGeometry>
        </mxCell>
        <mxCell id="95ebwujwE4yP5C2ZVktL-17" value="&lt;font style=&quot;font-size: 7px;&quot;&gt;4: pergunta&lt;/font&gt;" style="html=1;verticalAlign=bottom;endArrow=open;dashed=1;endSize=8;edgeStyle=elbowEdgeStyle;elbow=vertical;curved=0;rounded=0;" edge="1" parent="1">
          <mxGeometry relative="1" as="geometry">
            <mxPoint x="-460" y="1072.5" as="sourcePoint" />
            <mxPoint x="-620" y="1072.4424242424243" as="targetPoint" />
          </mxGeometry>
        </mxCell>
        <mxCell id="95ebwujwE4yP5C2ZVktL-18" value="&lt;span style=&quot;font-size: 7px;&quot;&gt;5: responderPergunta(alternativa)&lt;/span&gt;" style="html=1;verticalAlign=bottom;endArrow=block;edgeStyle=elbowEdgeStyle;elbow=vertical;curved=0;rounded=0;" edge="1" parent="1">
          <mxGeometry width="80" relative="1" as="geometry">
            <mxPoint x="-620" y="1120" as="sourcePoint" />
            <mxPoint x="-460" y="1120" as="targetPoint" />
          </mxGeometry>
        </mxCell>
        <mxCell id="95ebwujwE4yP5C2ZVktL-19" value="&lt;span style=&quot;font-size: 7px;&quot;&gt;6: verificarResposta(pergunta, alternativa)&lt;/span&gt;" style="html=1;verticalAlign=bottom;endArrow=block;edgeStyle=elbowEdgeStyle;elbow=vertical;curved=0;rounded=0;" edge="1" parent="1">
          <mxGeometry width="80" relative="1" as="geometry">
            <mxPoint x="-450" y="1150.21" as="sourcePoint" />
            <mxPoint x="-290" y="1150.21" as="targetPoint" />
          </mxGeometry>
        </mxCell>
        <mxCell id="95ebwujwE4yP5C2ZVktL-20" value="&lt;font style=&quot;font-size: 7px;&quot;&gt;7: correct&lt;/font&gt;" style="html=1;verticalAlign=bottom;endArrow=open;dashed=1;endSize=8;edgeStyle=elbowEdgeStyle;elbow=vertical;curved=0;rounded=0;" edge="1" parent="1">
          <mxGeometry relative="1" as="geometry">
            <mxPoint x="-290" y="1198.6762962962962" as="sourcePoint" />
            <mxPoint x="-450" y="1198.6224242424241" as="targetPoint" />
          </mxGeometry>
        </mxCell>
        <mxCell id="95ebwujwE4yP5C2ZVktL-21" value="&lt;font style=&quot;font-size: 7px;&quot;&gt;8: Você acertou a resposta!&lt;/font&gt;" style="html=1;verticalAlign=bottom;endArrow=open;dashed=1;endSize=8;edgeStyle=elbowEdgeStyle;elbow=vertical;curved=0;rounded=0;" edge="1" parent="1">
          <mxGeometry relative="1" as="geometry">
            <mxPoint x="-460" y="1290.0962962962963" as="sourcePoint" />
            <mxPoint x="-620" y="1290.0424242424242" as="targetPoint" />
          </mxGeometry>
        </mxCell>
        <mxCell id="95ebwujwE4yP5C2ZVktL-22" value="&lt;font style=&quot;font-size: 7px;&quot;&gt;8: Infelizmente você errou a resposta!&lt;/font&gt;" style="html=1;verticalAlign=bottom;endArrow=open;dashed=1;endSize=8;edgeStyle=elbowEdgeStyle;elbow=vertical;curved=0;rounded=0;" edge="1" parent="1">
          <mxGeometry relative="1" as="geometry">
            <mxPoint x="-460" y="1360.0562962962963" as="sourcePoint" />
            <mxPoint x="-620" y="1360.0024242424242" as="targetPoint" />
          </mxGeometry>
        </mxCell>
      </root>
    </mxGraphModel>
  </diagram>
</mxfile>
